# xmcd
#
# Track frame offsets:
# 150
# 21683
# 38228
# 58300
# 78144
# 97728
# 126712
# 139981
# 160286
# 179160
# 198113
# 219595
# 239443
# 260394
#
# Disc length: 3709 seconds
#
#
# Revision: 10
# Processed by: cddbd v1.5.1PL2 Copyright (c) Steve Scherf et al.
# Submitted via: FreeRIP 2.944 
#
DISCID=d30e7b0e
DTITLE=Chayanne - Grandes Exitos
DYEAR=2002
DGENRE=Latin
TTITLE0=Y Tú Te Vas
TTITLE1=Torero
TTITLE2=Quisiera Ser
TTITLE3=Salomé (Club Mix-Radio Edit)
TTITLE4=Complétamente Enamorados
TTITLE5=Fiesta En América
TTITLE6=Tu Pirata Soy Yo
TTITLE7=Este Ritmo Se Baila Así
TTITLE8=Tiempo De Vals
TTITLE9=Provócame
TTITLE10=Dejaría Todo
TTITLE11=Baila Baila [Memè's Boriqua Radio Edit]
TTITLE12=Tal Vez Es Amor
TTITLE13=Candela
EXTD=
EXTT0=
EXTT1=
EXTT2=
EXTT3=
EXTT4=
EXTT5=
EXTT6=
EXTT7=
EXTT8=
EXTT9=
EXTT10=
EXTT11=
EXTT12=
EXTT13=
PLAYORDER=
